<?xml version="1.0" encoding="iso-8859-1"?>
<!-- Uploaded to: SVG Repo, www.svgrepo.com, Generator: SVG Repo Mixer Tools -->
<!DOCTYPE svg PUBLIC "-//W3C//DTD SVG 1.1//EN" "http://www.w3.org/Graphics/SVG/1.1/DTD/svg11.dtd">
<svg fill="#ff0033" height="800px" width="800px" version="1.1" id="Capa_1" xmlns="http://www.w3.org/2000/svg" xmlns:xlink="http://www.w3.org/1999/xlink" 
	 viewBox="0 0 468.2 468.2" xml:space="preserve">
<path d="M401.341,83.801H285.107l42.109-58.729c5.102-7.11,3.463-17.004-3.633-22.09c-7.127-5.133-17.006-3.463-22.092,3.633
	L246.15,83.801h-24.086L166.708,6.616c-5.104-7.096-14.965-8.766-22.092-3.633c-7.096,5.086-8.734,14.98-3.633,22.09l42.125,58.729
	H66.874c-13.064,0-23.652,10.589-23.652,23.651V444.55c0,13.063,10.588,23.65,23.652,23.65h334.467
	c13.047,0,23.637-10.588,23.637-23.65V107.453C424.978,94.39,414.388,83.801,401.341,83.801z M208.044,423.663
	c0,5.287-4.283,9.569-9.57,9.569H99.57c-5.287,0-9.568-4.282-9.568-9.569v-18.457c0-5.287,4.281-9.569,9.568-9.569h98.904
	c5.287,0,9.57,4.282,9.57,9.569V423.663z M353.822,438.844c-13.482,0-24.41-10.93-24.41-24.395c0-13.48,10.928-24.409,24.41-24.409
	c13.463,0,24.393,10.929,24.393,24.409C378.214,427.915,367.285,438.844,353.822,438.844z M378.214,274.47
	c0,43.068-34.906,77.975-77.975,77.975H167.976c-43.07,0-77.975-34.906-77.975-77.975v-70.924c0-43.069,34.904-77.99,77.975-77.99
	H300.24c43.068,0,77.975,34.921,77.975,77.99V274.47z"/>
</svg>